<?xml version="1.0" encoding="utf-8"?>
<!-- Generator: Adobe Illustrator 22.0.0, SVG Export Plug-In . SVG Version: 6.00 Build 0)  -->
<svg version="1.1" xmlns="http://www.w3.org/2000/svg" xmlns:xlink="http://www.w3.org/1999/xlink" x="0px" y="0px"
	 viewBox="0 0 469 66.5" style="enable-background:new 0 0 469 66.5;" xml:space="preserve">
<style type="text/css">
	.st0{fill:none;stroke:#FDCAD1;stroke-miterlimit:10;}
</style>
<g id="c_3_">
	<path id="c_1_" class="st0" d="M120.3,60.8c2.9,0,4.4,0.6,4.4,1.9c0,2.2-2.7,3.3-8,3.3c-2.2,0-4.5-0.2-6.8-0.6
		c-2.3-0.4-4.1-0.8-5.2-1.2c-6.4-2.4-9.6-9-9.6-19.8l-0.1-5c0-16.2,3.4-25.8,10.1-28.7c3.5-1.5,8.3-2.2,14.5-2.2c1,0,2,0.2,2.9,0.7
		c0.9,0.4,1.3,0.9,1.3,1.5v0.3c-0.9,1.3-3.2,1.9-7,1.9l-2.6-0.1c-1.6,0-3,0.5-4.3,1.5c-1.2,1-2.2,2.2-2.9,3.7
		c-0.7,1.4-1.2,3-1.6,4.8c-0.7,2.8-1,5.4-1,7.8v0.4l-0.9,16.3c0,3.4,0.3,5.8,1,7.1c0.6,1.3,1.3,2.4,2,3.2c0.7,0.8,1.5,1.5,2.4,2
		c2.2,1.2,4.9,1.8,8.3,1.8C118.3,61.6,119.4,61.3,120.3,60.8z"/>
</g>
<g id="o_2_">
	<path id="_x30__1_" class="st0" d="M169.7,42.1c0,16.2-5.7,24.3-17,24.3c-10.4,0-16.3-7.7-17.5-23c-0.1-1.5-0.1-2.9-0.1-4.4
		l-0.1-5.2v-1.7c0-11.9,3-19.3,8.9-22.1c1.5-0.7,3.1-1.1,4.9-1.1c1.4,0.3,3,0.5,5,0.8c2,0.2,3.4,0.5,4.4,0.7
		c1.7,0.5,3.6,1.7,5.6,3.7c2,2,3.5,4.6,4.5,7.9c1,3.3,1.4,6.6,1.4,9.9V42.1z M142.9,22.2l0.2,5l-0.1,8.1c0,0.7,0,1.5,0.1,2.4
		c0,0.9,0.1,2.2,0.2,3.7c0.1,1.5,0.2,3,0.4,4.5c0.2,1.5,0.5,3.1,0.7,4.7c0.3,1.7,0.7,3.2,1.1,4.6c0.5,1.4,1,2.7,1.5,3.9
		c1.3,2.5,2.9,3.8,5,3.8c2.8,0,4.9-1.5,6.3-4.6c2.2-4.5,3.2-10.1,3.2-16.8l0.2-8.7c0-6.1-0.5-10.2-1.4-12.3
		c-0.9-2.1-1.8-3.7-2.6-4.8c-1.6-2.2-4-3.3-7.3-3.3c-0.1,0-0.2,0-0.3,0C145.4,12.5,142.9,15.7,142.9,22.2z"/>
</g>
<g id="c">
	<path id="c_2_" class="st0" d="M8.7,23.6l-1.3,5.9c0,2.9,0.6,8.1,1.9,15.7c1.3,7.6,2.5,12,3.8,13c2.2,1.8,5.5,2.8,9.9,2.8
		c4.5,0,7.9-0.8,10.2-2.4c1.6,0,3.2-0.1,4.6-0.4v1.1c0,1.7-0.8,3.1-2.5,4.2c-2.8,1.8-7.2,2.8-13.2,2.8c-3.2,0-6.4-0.6-9.6-1.9
		c-3.1-1.3-5.5-2.9-7.2-5c-1.6-2-2.9-7.3-3.9-15.7C0.5,35.1,0,28.6,0,24.1c0-4.6,0.3-7.8,1-9.8c-0.3-0.9-0.4-1.8-0.4-2.6
		c0-3.5,2.2-6.2,6.6-8.3c4.4-2,9.9-3.1,16.3-3.1c2.3,0,4.6,0.4,6.8,1.1c2.2,0.8,3.3,1.8,3.3,3c0,0.6-0.4,1.1-1.2,1.4
		c-0.8,0.3-1.9,0.5-3.3,0.5c-1.4,0-2.5-0.3-3.2-1v0.2h-2.3V5.1c-7.4,0-12.1,1.8-13.9,5.5c-0.9,1.8-1.4,4.2-1.4,7.2L8.7,23.6z"/>
</g>
<g id="o_1_">
	<path id="_x30__3_" class="st0" d="M82.6,42.1c0,16.2-5.7,24.3-17,24.3c-10.4,0-16.3-7.7-17.5-23c-0.1-1.5-0.1-2.9-0.1-4.4
		l-0.1-5.2v-1.7c0-11.9,3-19.3,8.9-22.1c1.5-0.7,3.1-1.1,4.9-1.1c1.4,0.3,3,0.5,5,0.8c2,0.2,3.4,0.5,4.4,0.7
		c1.7,0.5,3.6,1.7,5.6,3.7c2,2,3.5,4.6,4.5,7.9c1,3.3,1.4,6.6,1.4,9.9V42.1z M55.8,22.2l0.2,5l-0.1,8.1c0,0.7,0,1.5,0.1,2.4
		c0,0.9,0.1,2.2,0.2,3.7c0.1,1.5,0.2,3,0.4,4.5c0.2,1.5,0.5,3.1,0.7,4.7c0.3,1.7,0.7,3.2,1.1,4.6c0.5,1.4,1,2.7,1.5,3.9
		c1.3,2.5,2.9,3.8,5,3.8c2.8,0,4.9-1.5,6.3-4.6c2.2-4.5,3.2-10.1,3.2-16.8l0.2-8.7c0-6.1-0.5-10.2-1.4-12.3
		c-0.9-2.1-1.8-3.7-2.6-4.8c-1.6-2.2-4-3.3-7.3-3.3c-0.1,0-0.2,0-0.3,0C58.3,12.5,55.8,15.7,55.8,22.2z"/>
</g>
<g id="l_1_">
	<path id="l" class="st0" d="M211.2,2.4l1.5,30.4c0,1-0.1,1.9-0.3,2.7v0.4c0.1,1.6,0.4,3.9,0.6,6.9c0.7,6.7,1.1,11.7,1.1,15.1v2.7
		h10.3c1.6,0.6,2.5,0.9,2.7,1.2c0.2,0.2,0.4,0.6,0.4,1.1c0,0.5-0.4,0.9-1.1,1.4c-0.7,0.5-1.4,0.7-2.2,0.7c-0.8,0-1.6-0.1-2.6-0.3
		c-0.8,0.1-1.7,0.2-2.7,0.2l-4.6-0.1c-1,0.7-2.2,1-3.7,1c-1.5,0-2.7-0.3-3.7-0.8c-1-0.5-1.5-1.2-1.5-1.9l0.9-3.7
		c0-6.4-0.5-16-1.4-28.8c-1-12.8-1.4-22.4-1.4-28.8c0-0.5,0.4-0.9,1.1-1.3C205,0.2,205.9,0,207,0c1.1,0,2,0.2,2.9,0.7
		C210.7,1.2,211.2,1.7,211.2,2.4z"/>
</g>
<g id="u_1_">
	<path id="u" class="st0" d="M272.2,27.1l0.1,1.4c-0.7,2-1.2,5.4-1.4,10.2c-0.2,4.8-0.6,8.7-1.2,11.7c-0.6,3-1.4,5.6-2.5,7.8
		c-1,2.2-2.7,4.1-5,5.6c-2.3,1.5-4.8,2.2-7.6,2.2c-2.8,0-5.1-0.3-6.9-0.9c-1.8-0.6-3.2-1.4-4.4-2.6c-1.1-1.1-2.1-2.3-2.8-3.6
		c-0.8-1.3-1.3-2.8-1.7-4.4c-0.7-2.9-1-6.1-1-9.3l0.8-22.3c0-4.9-0.6-8.9-1.8-12.1v-2c2.3,0,4.1,0.5,5.5,1.6c1.3,1,2,2.2,2,3.5v40.9
		c0,2.2,0.9,4.2,2.8,6c1.9,1.8,4.6,2.7,8.2,2.7c4.1,0,6.8-7,8.2-20.9v-0.4l0.1-0.5c1.2-12.7,1.8-23,1.8-30.9l-0.1-1.4
		c0-0.7,0.3-1.2,0.8-1.5c0.5-0.3,1.5-0.5,3-0.5c1.5,0,2.5,0.2,3.2,0.7c0.7,0.5,1.1,0.9,1.2,1.4c0.1,0.5,0.2,1.1,0.2,2l-1,8.5
		L272.2,27.1z"/>
</g>
<g id="x_1_">
	<path id="x" class="st0" d="M295.2,39.1c0-2.6-1.2-7.1-3.7-13.5c-2.4-6.4-4.2-10.1-5.4-11v-0.9c-0.8-0.5-1.2-1.1-1.2-1.8
		c0-1.3,1.4-2,4.3-2c1.1,0,2,0.2,2.7,0.7c0.7,0.5,1.1,0.9,1.3,1.4c0.2,0.5,0.3,1.2,0.5,2c0.1,0.8,0.3,1.6,0.6,2.4
		c0.3,0.7,1,2.5,2.1,5.3c1.1,2.8,1.9,4.9,2.5,6.4c0.2-0.7,0.7-2.1,1.4-4.4c1.4-4.4,2.1-7.5,2.1-9.1c0-3.5,1.5-5.1,4.4-5
		c1.3,0.1,2,0.5,2.1,1.2c0.1,0.5,0.1,1.3,0,2.3c-0.1,1-0.1,1.7-0.1,2.2v3.8c-1.2,1.9-2.6,5.1-4.2,9.6c-1.5,4.5-2.3,7.7-2.3,9.6
		c0,1.9,0.9,4.6,2.6,8c1.7,3.4,3.4,6.6,5.1,9.7c1.7,3.1,2.6,5.1,2.6,6.1c0,1-0.4,1.7-1.2,2.1c-0.8,0.4-1.7,0.6-2.7,0.6
		c-1.1,0-2.1-0.2-3.3-0.6c-0.7-1.7-1.8-4.5-3.3-8.4c-1.5-3.8-2.7-6.8-3.4-8.8c-0.2,0.8-0.7,2.9-1.3,6.3c-0.6,3.4-1.4,6-2.3,7.8
		c0,0.2,0.1,0.5,0.1,1c0,2.1-1.2,3.1-3.7,3.1c-1.1,0-2.1-0.2-3-0.5c-0.9-0.3-1.4-0.8-1.4-1.4c0-3.6,1.3-7.9,4-12.8
		C293.9,45.5,295.2,41.7,295.2,39.1z"/>
</g>
<g id="b_1_">
	<path id="b" class="st0" d="M345.6,6.9c0-3.7,1.8-5.5,5.4-5.5c4.4,0,8.2,0.6,11.5,1.9c6.6,2.4,9.9,6.5,9.9,12
		c0,4.3-2.9,8.9-8.8,13.7c4.1,3.4,6.6,5.4,7.4,6c0.9,0.6,1.6,1.2,2.3,1.9c0.7,0.6,1,1,1.1,1.2c0.1,0.2,0.3,0.6,0.5,1.3
		c0.2,0.7,0.4,1.3,0.4,1.9c0,1.3,0.3,2.9,0.7,4.8c0.4,1.8,0.7,2.9,0.8,3.1c0.1,0.2,0,0.9-0.5,2.1c-0.5,1.2-0.8,2-1,2.4
		c-0.2,0.4-0.4,0.9-0.8,1.7c-0.3,0.7-0.6,1.2-0.8,1.6c-0.2,0.3-0.6,0.8-1,1.4c-0.4,0.6-0.8,1-1.3,1.3c-0.4,0.3-0.9,0.7-1.5,1.1
		c-0.6,0.5-1.3,0.8-2,1.1c-0.7,0.3-1.5,0.6-2.4,1c-3,1.2-5.6,2-7.9,2.3c-2.3,0.3-3.6,0.5-3.9,0.5h-0.7c-2.6,0-4.3-0.1-5-0.3
		c-1.4-0.4-2-1-2-1.8l0.7-20.8l-1-34.3V6.9z M355.4,6.2c-1.3,0-2,1-2,3c0,2,0.1,5.2,0.3,9.5c0.2,4.3,0.3,7.5,0.3,9.4
		c3.4-0.5,6.4-2.9,8.8-7.4c1.3-2.4,2.2-3.8,2.5-4.3v-3c0-1.7-1-3.3-3-4.8C360.3,7,358,6.2,355.4,6.2z M358.8,32.4L358.8,32.4l-4.9,0
		c0.4,7,0.6,16.6,0.6,28.7c4.6-0.4,8.3-1.7,11-3.9c2.7-2.2,4-4.7,4-7.6C369.5,40.1,365.9,34.4,358.8,32.4z"/>
</g>
<g id="o_3_">
	<path id="o" class="st0" d="M422.4,42.1c0,16.2-5.7,24.3-17,24.3c-10.4,0-16.3-7.7-17.5-23c-0.1-1.5-0.1-2.9-0.1-4.4l-0.1-5.2v-1.7
		c0-11.9,3-19.3,8.9-22.1c1.5-0.7,3.1-1.1,4.9-1.1c1.4,0.3,3,0.5,5,0.8c2,0.2,3.4,0.5,4.4,0.7c1.7,0.5,3.6,1.7,5.6,3.7
		c2,2,3.5,4.6,4.5,7.9c1,3.3,1.4,6.6,1.4,9.9V42.1z M395.6,22.2l0.2,5l-0.1,8.1c0,0.7,0,1.5,0.1,2.4c0,0.9,0.1,2.2,0.2,3.7
		c0.1,1.5,0.2,3,0.4,4.5c0.2,1.5,0.5,3.1,0.7,4.7c0.3,1.7,0.7,3.2,1.1,4.6c0.5,1.4,1,2.7,1.5,3.9c1.3,2.5,2.9,3.8,5,3.8
		c2.8,0,4.9-1.5,6.3-4.6c2.2-4.5,3.2-10.1,3.2-16.8l0.2-8.7c0-6.1-0.5-10.2-1.4-12.3c-0.9-2.1-1.8-3.7-2.6-4.8
		c-1.6-2.2-4-3.3-7.3-3.3c-0.1,0-0.2,0-0.3,0C398.2,12.5,395.6,15.7,395.6,22.2z"/>
</g>
<g id="s">
	<g>
		<path class="st0" d="M435.8,61.7l10.4,0.6c2.5,0,4.7-0.5,6.5-1.4c1.9-1,3.2-2.2,4.1-3.6c1.7-2.8,2.6-5.2,2.6-7.3
			c0-2.1-0.8-4.2-2.4-6.3c-1.6-2.1-3.5-4-5.9-5.8c-2.3-1.8-4.6-3.6-7-5.5c-5.5-4.4-8.3-8.7-8.3-12.9c0-2.6,1-4.9,3-6.9
			c3.7-3.7,8.6-5.6,14.8-5.6c2.3,0,4.5,0.3,6.6,1c2.1,0.6,3.1,1.3,3.1,2.1c0,1.3-1.6,2-4.8,2c-1.4,0-2.8-0.2-4.1-0.5
			c-4.2,0.1-7,2.1-8.4,6.1c-0.3,0.9-0.5,1.9-0.5,3.1c0,1.2,0.6,2.6,1.7,4.3c1.2,1.7,2.6,3.2,4.4,4.6c1.8,1.3,3.6,2.8,5.7,4.4
			c2,1.6,3.9,3.2,5.7,4.7c4,3.5,6,7.5,6,12.1c0,3.6-1.6,6.9-4.9,10c-1.7,1.6-4.2,2.9-7.3,3.9c-3.2,1-6.8,1.5-11,1.5v0.2
			c-2.4-0.1-4.6-0.5-6.6-1.1c-2-0.6-3.1-1.3-3.4-2.3V61.7z"/>
	</g>
</g>
</svg>
