<?xml version="1.0" encoding="utf-8"?>
<!-- Generator: Adobe Illustrator 22.0.0, SVG Export Plug-In . SVG Version: 6.00 Build 0)  -->
<svg version="1.1" xmlns="http://www.w3.org/2000/svg" xmlns:xlink="http://www.w3.org/1999/xlink" x="0px" y="0px"
	 viewBox="0 0 1734.4 245.8" style="enable-background:new 0 0 1734.4 245.8;" xml:space="preserve">
<style type="text/css">
	.st0{fill:#FDCAD1;}
</style>
<g id="c_3_">
	<path id="c_1_" class="st0" d="M444.9,224.9c10.8,0,16.2,2.3,16.2,6.9c0,8.2-9.9,12.4-29.7,12.4c-8.2,0-16.5-0.7-25.1-2.1
		c-8.6-1.4-15.1-2.9-19.4-4.5c-23.6-9-35.4-33.4-35.4-73.4l-0.3-18.3c0-59.9,12.5-95.3,37.5-106c12.8-5.5,30.7-8.2,53.7-8.2
		c3.8,0,7.3,0.8,10.5,2.4c3.2,1.6,4.8,3.5,4.8,5.6v1.2c-3.3,4.8-11.9,7.2-25.8,7.2l-9.6-0.3c-5.9,0-11.2,1.9-15.8,5.6
		c-4.6,3.8-8.1,8.3-10.5,13.6c-2.4,5.3-4.4,11.2-6,17.7c-2.4,10.3-3.6,19.9-3.6,28.8v1.5l-3.4,60.3c0,12.7,1.2,21.5,3.5,26.4
		c2.3,4.9,4.8,8.8,7.3,11.8c2.5,3,5.5,5.5,9,7.4c8,4.5,18.2,6.7,30.7,6.7C437.6,227.7,441.4,226.7,444.9,224.9z"/>
</g>
<g id="o_2_">
	<path id="_x30__1_" class="st0" d="M627.5,155.6c0,59.9-20.9,89.9-62.8,89.9c-38.6,0-60.2-28.4-64.9-85.1
		c-0.4-5.4-0.5-10.8-0.5-16.2l-0.3-19.1V119c0-44,11-71.3,33.1-81.6c5.4-2.5,11.4-3.9,18-4.1c5,1,11.2,2,18.5,2.8
		c7.3,0.9,12.7,1.8,16.2,2.7c6.4,1.7,13.4,6.2,20.8,13.5c7.5,7.3,13,17,16.5,29.1c3.6,12.2,5.3,24.3,5.3,36.5V155.6z M528.5,82.1
		l0.8,18.3l-0.3,29.9c0,2.5,0.1,5.5,0.3,9c0.2,3.5,0.4,8,0.7,13.7c0.3,5.6,0.8,11.2,1.6,16.8c0.8,5.5,1.7,11.4,2.7,17.5
		c1,6.2,2.4,11.9,4.2,17.1c1.7,5.2,3.6,10,5.7,14.3c4.7,9.3,10.9,13.9,18.5,13.9c10.2,0,18.1-5.6,23.4-16.9c8-16.8,12-37.4,12-62
		l0.8-32.2c0-22.6-1.7-37.8-5.1-45.6c-3.4-7.8-6.6-13.7-9.5-17.7c-5.9-8-14.8-12.1-26.8-12.1c-0.4,0-0.7,0-1,0
		C537.8,46.1,528.5,58.1,528.5,82.1z"/>
</g>
<g id="c">
	<path id="c_2_" class="st0" d="M32,87.3l-4.7,21.8c0,10.6,2.4,30,7.2,58.1c4.8,28.2,9.4,44.2,13.9,48.1c8,6.8,20.2,10.2,36.7,10.2
		c16.5,0,29.1-3,37.8-9c6.1,0,11.7-0.5,16.9-1.5v4.1c0,6.3-3.1,11.4-9.4,15.4c-10.2,6.8-26.6,10.2-49,10.2c-12,0-23.8-2.4-35.4-7.1
		c-11.6-4.7-20.5-10.9-26.6-18.4c-6.1-7.5-10.9-26.9-14.3-58.1C1.7,129.9,0,105.8,0,89c0-16.9,1.2-29,3.6-36.3
		c-1-3.4-1.6-6.6-1.6-9.8c0-12.8,8.2-23,24.5-30.6C42.9,4.7,63,0.9,87,0.9c8.5,0,16.8,1.4,25,4.2c8.2,2.8,12.2,6.5,12.2,11.1
		c0,2.2-1.5,4-4.4,5.2c-3,1.2-7.1,1.8-12.4,1.8c-5.3,0-9.2-1.3-11.9-3.8V20h-8.3v-1.2c-27.4,0-44.6,6.8-51.6,20.4
		c-3.5,6.7-5.2,15.6-5.2,26.6L32,87.3z"/>
</g>
<g id="o_1_">
	<path id="_x30__3_" class="st0" d="M305.3,155.6c0,59.9-20.9,89.9-62.8,89.9c-38.6,0-60.2-28.4-64.9-85.1
		c-0.4-5.4-0.5-10.8-0.5-16.2l-0.3-19.1V119c0-44,11-71.3,33.1-81.6c5.4-2.5,11.4-3.9,18-4.1c5,1,11.2,2,18.5,2.8
		c7.3,0.9,12.7,1.8,16.2,2.7c6.4,1.7,13.4,6.2,20.8,13.5c7.5,7.3,13,17,16.5,29.1c3.6,12.2,5.3,24.3,5.3,36.5V155.6z M206.3,82.1
		l0.8,18.3l-0.3,29.9c0,2.5,0.1,5.5,0.3,9c0.2,3.5,0.4,8,0.7,13.7c0.3,5.6,0.8,11.2,1.6,16.8c0.8,5.5,1.7,11.4,2.7,17.5
		c1,6.2,2.4,11.9,4.2,17.1c1.7,5.2,3.6,10,5.7,14.3c4.7,9.3,10.9,13.9,18.5,13.9c10.2,0,18.1-5.6,23.4-16.9c8-16.8,12-37.4,12-62
		l0.8-32.2c0-22.6-1.7-37.8-5.1-45.6c-3.4-7.8-6.6-13.7-9.5-17.7c-5.9-8-14.8-12.1-26.8-12.1c-0.4,0-0.7,0-1,0
		C215.6,46.1,206.3,58.1,206.3,82.1z"/>
</g>
<g id="l_1_">
	<path id="l" class="st0" d="M781,9l5.5,112.5c0,3.7-0.3,7-1,9.9v1.4c0.5,6,1.3,14.5,2.3,25.6c2.6,24.7,3.9,43.3,3.9,55.8v9.9h38
		c5.9,2,9.3,3.5,10.2,4.4c0.9,0.9,1.3,2.2,1.3,3.9c0,1.7-1.3,3.4-3.9,5.2c-2.6,1.8-5.3,2.7-8.1,2.7c-2.8,0-6-0.4-9.6-1.1
		c-3,0.4-6.3,0.6-10.2,0.6l-17.2-0.5c-3.6,2.5-8.2,3.8-13.7,3.8s-10.1-1-13.8-3c-3.7-2-5.6-4.3-5.6-6.9l3.4-13.7
		c0-23.7-1.8-59.2-5.3-106.6c-3.6-47.4-5.3-82.9-5.3-106.6c0-1.9,1.3-3.5,3.9-4.7c2.6-1.2,5.9-1.8,9.8-1.8c3.9,0,7.5,0.9,10.7,2.6
		C779.3,4.3,781,6.5,781,9z"/>
</g>
<g id="u_1_">
	<path id="u" class="st0" d="M1006.5,100.4l0.5,5.3c-2.6,7.3-4.3,19.9-5.1,37.8c-0.8,17.9-2.3,32.2-4.6,43.2
		c-2.3,10.9-5.3,20.5-9.1,28.8c-3.8,8.3-9.9,15.2-18.4,20.7c-8.4,5.5-17.8,8.2-28.1,8.2c-10.3,0-18.8-1.1-25.4-3.3
		c-6.6-2.2-12-5.3-16.2-9.5c-4.2-4.1-7.6-8.5-10.4-13.3c-2.8-4.7-4.9-10.2-6.3-16.4c-2.4-10.9-3.6-22.4-3.6-34.5l2.9-82.4
		c0-18-2.2-32.9-6.5-44.7V33c8.5,0,15.2,1.9,20.2,5.8c4.9,3.9,7.4,8.2,7.4,13v151.2c0,8,3.4,15.4,10.3,22c6.9,6.7,17,10,30.3,10
		c15.1,0,25.2-25.7,30.2-77.2v-1.4l0.3-2c4.5-47,6.8-85,6.8-114.1l-0.3-5.2c0-2.4,1-4.3,2.9-5.5c1.9-1.2,5.6-1.8,10.9-1.8
		c5.4,0,9.4,0.9,12,2.6c2.6,1.7,4.1,3.5,4.6,5.3c0.4,1.8,0.7,4.2,0.7,7.2l-3.6,31.4L1006.5,100.4z"/>
</g>
<g id="x_1_">
	<path id="x" class="st0" d="M1091.7,144.6c0-9.6-4.5-26.3-13.5-50c-9-23.8-15.6-37.4-19.8-40.8v-3.4c-3-1.7-4.4-4-4.4-6.7
		c0-5,5.3-7.5,15.9-7.5c4.2,0,7.5,0.8,10,2.5c2.5,1.7,4.1,3.5,4.7,5.3c0.6,1.9,1.2,4.3,1.7,7.4c0.5,3.1,1.3,6,2.2,8.7
		c1,2.7,3.5,9.3,7.7,19.5c4.2,10.3,7.2,18.2,9.1,23.7c0.7-2.4,2.4-7.8,5.2-16.2c5.2-16.4,7.8-27.6,7.8-33.6
		c0-12.8,5.4-18.9,16.2-18.3c4.9,0.2,7.5,1.7,7.8,4.6c0.3,1.9,0.3,4.7,0,8.4c-0.3,3.7-0.5,6.4-0.5,8.1v14.2
		c-4.5,7.1-9.6,18.9-15.4,35.5c-5.7,16.5-8.6,28.4-8.6,35.6c0,7.2,3.2,17,9.5,29.4c6.3,12.5,12.7,24.4,19,35.9
		c6.3,11.4,9.5,19,9.5,22.6c0,3.6-1.4,6.2-4.3,7.6c-2.9,1.5-6.3,2.2-10.2,2.2c-3.9,0-7.9-0.7-12.1-2.1c-2.4-6.4-6.5-16.7-12.2-30.9
		s-9.9-25-12.5-32.6c-0.9,2.8-2.4,10.6-4.7,23.2c-2.3,12.6-5,22.2-8.3,28.7c0.2,0.7,0.3,1.9,0.3,3.7c0,7.7-4.6,11.6-13.8,11.6
		c-4,0-7.7-0.6-11.1-1.9c-3.4-1.3-5.1-3-5.1-5.3c0-13.3,5-29.1,15-47.3C1086.7,168.1,1091.7,154.2,1091.7,144.6z"/>
</g>
<g id="b_1_">
	<path id="b" class="st0" d="M1278,25.6c0-13.6,6.7-20.4,20.1-20.4c16.3,0,30.5,2.3,42.5,6.9c24.3,9.1,36.5,23.9,36.5,44.4
		c0,15.9-10.9,32.8-32.6,50.7c15.1,12.5,24.3,19.9,27.5,22.1c3.2,2.2,6,4.6,8.5,6.9c2.4,2.4,3.8,3.9,4.2,4.4c0.3,0.6,1,2.2,1.8,4.8
		c0.9,2.6,1.4,4.9,1.6,6.9c0.2,5,1,10.9,2.5,17.7c1.5,6.8,2.5,10.6,3,11.4c0.5,0.8-0.1,3.4-2,7.9c-1.8,4.4-3.1,7.4-3.8,8.9
		c-0.7,1.5-1.7,3.5-2.9,6.1c-1.2,2.6-2.3,4.5-3.1,5.8c-0.9,1.3-2.1,3-3.6,5c-1.6,2.1-3.1,3.7-4.7,4.7c-1.6,1.1-3.5,2.4-5.7,4.1
		c-2.3,1.7-4.7,3.1-7.3,4.1c-2.6,1.1-5.6,2.3-8.9,3.7c-10.9,4.5-20.7,7.4-29.3,8.6c-8.6,1.3-13.4,1.9-14.5,1.9h-2.6
		c-9.7,0-15.9-0.4-18.5-1.2c-5-1.6-7.6-3.8-7.6-6.6l2.6-76.9l-3.6-127V25.6z M1314.2,22.9c-4.9,0-7.3,3.7-7.3,11.2
		c0,7.5,0.3,19.2,1,35.2c0.7,16,1,27.6,1,34.9c12.7-1.7,23.5-10.9,32.6-27.5c4.9-8.9,8-14.2,9.4-16V49.6c0-6.1-3.7-12.1-11.1-17.9
		C1332.5,25.8,1323.9,22.9,1314.2,22.9z M1326.9,119.9v-0.2h-18.2c1.6,25.8,2.3,61.2,2.3,106.2c17.2-1.6,30.7-6.4,40.6-14.4
		c9.9-8,14.8-17.4,14.8-28.2C1366.5,148.2,1353.3,127.1,1326.9,119.9z"/>
</g>
<g id="o_3_">
	<path id="o" class="st0" d="M1562.2,155.6c0,59.9-20.9,89.9-62.8,89.9c-38.6,0-60.2-28.4-64.9-85.1c-0.3-5.4-0.5-10.8-0.5-16.2
		l-0.3-19.1V119c0-44,11-71.3,33.1-81.6c5.4-2.5,11.4-3.9,18-4.1c5,1,11.2,2,18.5,2.8c7.3,0.9,12.7,1.8,16.2,2.7
		c6.4,1.7,13.4,6.2,20.8,13.5c7.5,7.3,13,17,16.5,29.1c3.6,12.2,5.3,24.3,5.3,36.5V155.6z M1463.2,82.1l0.8,18.3l-0.3,29.9
		c0,2.5,0.1,5.5,0.3,9c0.2,3.5,0.4,8,0.7,13.7c0.3,5.6,0.8,11.2,1.6,16.8c0.8,5.5,1.7,11.4,2.7,17.5c1,6.2,2.4,11.9,4.2,17.1
		c1.7,5.2,3.6,10,5.7,14.3c4.7,9.3,10.9,13.9,18.5,13.9c10.2,0,18.1-5.6,23.4-16.9c8-16.8,12-37.4,12-62l0.8-32.2
		c0-22.6-1.7-37.8-5.1-45.6c-3.4-7.8-6.6-13.7-9.5-17.7c-5.9-8-14.8-12.1-26.8-12.1c-0.4,0-0.7,0-1,0
		C1472.5,46.1,1463.2,58.1,1463.2,82.1z"/>
</g>
<g id="s">
	<g>
		<path class="st0" d="M1611.6,228.1l38.3,2.3c9.2,0,17.3-1.8,24.1-5.3c6.9-3.5,11.9-8,15.3-13.3c6.4-10.2,9.6-19.2,9.6-27.1
			c0-7.9-3-15.6-8.9-23.3c-5.9-7.7-13.1-14.8-21.6-21.5c-8.5-6.6-17.2-13.3-25.9-20.2c-20.3-16.1-30.5-32-30.5-47.7
			c0-9.6,3.7-18,11-25.4c13.7-13.7,31.9-20.6,54.6-20.6c8.5,0,16.6,1.2,24.3,3.6c7.7,2.4,11.5,5,11.5,7.8c0,4.9-5.9,7.3-17.7,7.3
			c-5.2,0-10.3-0.6-15.3-1.9c-15.4,0.3-25.8,7.9-31.2,22.6c-1.2,3.2-1.8,7-1.8,11.3c0,4.3,2.1,9.6,6.4,16c4.3,6.3,9.6,12,16.1,16.9
			c6.5,4.9,13.5,10.4,20.9,16.4c7.5,6,14.5,11.8,21.1,17.4c14.9,13,22.4,27.9,22.4,44.6c0,13.3-6,25.6-18.1,37
			c-6.4,5.8-15.4,10.6-27.1,14.3c-11.7,3.7-25.3,5.6-40.6,5.7v0.8c-9-0.5-17.2-1.8-24.5-4c-7.3-2.1-11.5-4.9-12.4-8.3V228.1z"/>
	</g>
</g>
</svg>
